<svg width="150" height="50" viewBox="0 0 150 50" fill="none" xmlns="http://www.w3.org/2000/svg">
  <!-- Blue J shape -->
  <path d="M30 10C35 10 40 12 40 18V30C40 36 35 40 28 40H20L30 10Z" fill="#003DA5"/>
  
  <!-- Red arc above J -->
  <path d="M18 10C30 5 45 8 45 18C45 20 43 22 40 22C37 22 35 20 35 18C35 15 38 13 42 15L18 10Z" fill="#E62019"/>
  
  <!-- S shape -->
  <path d="M50 20C50 13 55 10 60 10C67 10 70 15 70 20C70 25 65 27 60 28C55 29 55 31 55 33C55 35 57 37 60 37C63 37 65 35 65 33H70C70 38 65 40 60 40C53 40 50 35 50 30C50 25 55 23 60 22C65 21 65 19 65 17C65 15 63 13 60 13C57 13 55 15 55 17V20H50Z" fill="#003DA5"/>
  
  <!-- W shape -->
  <path d="M75 10H80L85 30L90 10H95L100 30L105 10H110L102 40H97L92 20L87 40H82L75 10Z" fill="#003DA5"/>
</svg> 